<?xml version="1.0" encoding="UTF-8"?><svg id="Layer_1" xmlns="http://www.w3.org/2000/svg" viewBox="0 0 48 48"><path d="m9.43,9.53c0-2.46,1.99-4.45,4.45-4.45h23.47c.67,0,1.21.54,1.21,1.21v33.18c0,.67-.54,1.21-1.21,1.21h-9.71c-.67,0-1.21-.54-1.21-1.21s.54-1.21,1.21-1.21h8.5v-6.47H14.29c-1.34,0-2.43,1.09-2.43,2.43v1.21c0,1.16.7,2.16,1.7,2.6.61.29.86,1.01.58,1.62-.27.58-.95.85-1.55.61-1.92-.84-3.16-2.73-3.16-4.82V9.53Zm26.7-2.02H13.89c-1.12,0-2.02.91-2.02,2.02v20.47c.74-.43,1.58-.65,2.43-.65h21.85V7.5Z"/><path d="m15.91,34.61c0-.22.18-.4.4-.4h8.09c.22,0,.4.18.4.4v8.11c0,.22-.18.4-.41.4-.08,0-.17-.03-.24-.08l-3.57-2.6c-.14-.1-.33-.1-.48,0l-3.57,2.59c-.18.13-.43.09-.57-.09-.05-.07-.08-.15-.08-.23,0,0,0-8.11,0-8.11Z"/></svg>